<svg width="53" height="40" viewBox="0 0 53 40" fill="none" xmlns="http://www.w3.org/2000/svg">
<path d="M44.896 3.34999C41.4653 1.785 37.7969 0.647629 33.9617 0C33.4907 0.830237 32.9405 1.94692 32.5611 2.83525C28.4842 2.23748 24.4448 2.23748 20.4429 2.83525C20.0636 1.94692 19.5008 0.830237 19.0256 0C15.1863 0.647629 11.5137 1.78918 8.08293 3.35828C1.163 13.5534 -0.712875 23.4953 0.225066 33.296C4.81472 36.6376 9.26265 38.6676 13.6355 39.9959C14.7152 38.5471 15.6781 37.0071 16.5077 35.384C14.9278 34.7987 13.4146 34.0764 11.9848 33.2379C12.3641 32.9639 12.7351 32.6775 13.0936 32.3827C21.8143 36.3595 31.2897 36.3595 39.9062 32.3827C40.2689 32.6775 40.6399 32.9639 41.015 33.2379C39.581 34.0805 38.0637 34.8028 36.4838 35.3882C37.3133 37.0071 38.2721 38.5513 39.3559 40C43.733 38.6717 48.1851 36.6418 52.7747 33.296C53.8753 21.9345 50.8947 12.0839 44.896 3.34999ZM17.6958 27.2686C15.0779 27.2686 12.931 24.8859 12.931 21.9843C12.931 19.0826 15.032 16.6958 17.6958 16.6958C20.3596 16.6958 22.5064 19.0785 22.4605 21.9843C22.4647 24.8859 20.3596 27.2686 17.6958 27.2686ZM35.3041 27.2686C32.6862 27.2686 30.5393 24.8859 30.5393 21.9843C30.5393 19.0826 32.6403 16.6958 35.3041 16.6958C37.9678 16.6958 40.1146 19.0785 40.0688 21.9843C40.0688 24.8859 37.9678 27.2686 35.3041 27.2686Z" fill="white"/>
</svg>
